<?xml version="1.0" standalone="no"?>
<!DOCTYPE svg PUBLIC "-//W3C//DTD SVG 20010904//EN"
 "http://www.w3.org/TR/2001/REC-SVG-20010904/DTD/svg10.dtd">
<svg version="1.0" xmlns="http://www.w3.org/2000/svg"
 width="959.000000pt" height="1280.000000pt" viewBox="0 0 959.000000 1280.000000"
 preserveAspectRatio="xMidYMid meet">

<g transform="translate(0.000000,1280.000000) scale(0.100000,-0.100000)"
fill="#000000" stroke="none">
<path d="M0 9335 c0 -1906 1 -3465 3 -3465 2 -1 187 -30 377 -60 191 -29 521
-79 610 -91 41 -5 158 -23 260 -40 171 -28 187 -32 208 -57 13 -15 25 -39 28
-53 5 -23 47 -79 59 -79 3 0 5 7 5 15 0 8 -7 15 -15 15 -8 0 -12 6 -9 14 3 8
-1 30 -9 48 -32 73 -37 90 -37 116 0 15 4 33 9 41 6 9 5 24 0 39 -7 18 -6 29
6 42 8 9 18 32 21 51 6 34 75 255 199 644 35 110 85 272 110 360 25 88 54 183
65 210 10 28 22 67 25 87 5 28 13 39 32 45 39 13 239 -24 533 -100 376 -96
523 -126 1240 -258 63 -12 121 -27 127 -33 13 -12 13 -12 -21 -121 -9 -27 -16
-59 -16 -70 0 -11 -7 -31 -16 -44 -9 -13 -18 -40 -19 -60 -2 -46 -31 -185 -43
-208 -5 -10 -7 -32 -5 -49 3 -18 -1 -42 -8 -55 -7 -13 -14 -42 -15 -64 -1 -22
-7 -60 -13 -84 l-12 -43 -47 5 c-26 3 -76 12 -112 20 -613 143 -755 174 -766
166 -6 -5 -28 -57 -49 -115 l-37 -106 65 -97 c36 -53 68 -109 72 -126 11 -44
13 -155 3 -161 -4 -3 -6 -9 -3 -14 2 -4 0 -32 -5 -61 -5 -30 -12 -80 -15 -113
-3 -32 -8 -63 -11 -68 -3 -5 0 -16 7 -24 9 -11 8 -18 -5 -32 -9 -10 -16 -23
-16 -29 0 -6 -6 -16 -14 -22 -11 -9 -13 -34 -10 -112 2 -60 0 -99 -6 -99 -6 0
-10 -16 -10 -35 0 -18 -6 -38 -13 -42 -22 -13 -46 -54 -40 -69 3 -8 -1 -14
-11 -14 -9 0 -16 -8 -16 -20 0 -11 -4 -20 -10 -20 -17 0 -11 -38 8 -43 10 -3
5 -5 -12 -6 l-28 -1 23 -21 24 -21 -25 8 c-54 17 -145 6 -211 -24 -80 -37
-100 -52 -240 -184 -62 -60 -116 -108 -120 -108 -4 0 -34 -26 -66 -58 -32 -31
-96 -79 -143 -106 -260 -148 -307 -182 -337 -241 -9 -16 -40 -58 -71 -93 -100
-115 -117 -145 -176 -319 -52 -154 -139 -358 -168 -394 -36 -43 -58 -48 -303
-64 -132 -8 -316 -20 -410 -25 -93 -6 -216 -14 -273 -17 l-102 -6 0 -1558 0
-1559 1730 0 1730 0 -50 64 c-46 58 -56 65 -127 91 -154 54 -325 150 -402 225
l-43 42 -82 -6 c-111 -9 -233 -34 -279 -57 -41 -20 -107 -26 -107 -9 0 20 128
132 181 159 60 30 104 82 172 201 23 41 44 80 46 85 17 42 69 98 113 122 54
30 63 46 27 51 -18 3 -20 8 -15 34 3 17 6 37 6 44 0 19 121 95 187 118 87 30
157 31 248 6 58 -17 109 -23 185 -24 107 -1 204 17 197 37 -2 6 -21 17 -43 24
-51 18 -70 36 -52 50 7 6 69 32 138 58 165 62 177 69 306 169 101 77 214 187
214 208 0 5 38 67 85 138 86 132 125 166 111 98 -4 -18 -11 -126 -16 -239 -4
-113 -14 -223 -20 -245 -7 -21 -33 -79 -59 -129 -45 -88 -47 -90 -88 -96 -44
-5 -73 -23 -73 -44 0 -26 -121 -256 -138 -262 -37 -15 -160 -7 -254 16 -80 20
-100 22 -113 11 -23 -19 -18 -44 13 -62 32 -18 142 -54 192 -62 38 -6 184 7
214 19 16 7 17 5 11 -16 -11 -36 -22 -44 -40 -29 -12 10 -18 10 -30 0 -8 -7
-52 -15 -98 -17 -90 -6 -139 5 -246 55 -59 28 -86 23 -86 -18 0 -45 174 -120
277 -120 69 0 69 3 -2 -125 -18 -33 -41 -71 -51 -84 -11 -13 -19 -30 -19 -37
0 -16 43 -29 65 -20 8 3 15 1 15 -4 0 -14 -34 -85 -42 -88 -5 -2 -8 -9 -8 -16
0 -7 -7 -26 -15 -43 -27 -54 -94 -244 -95 -270 0 -2 1310 -3 2910 -3 l2910 0
0 6359 c0 5078 -3 6360 -12 6364 -10 4 -10 6 0 6 26 2 10 19 -25 27 -23 4 -31
9 -20 11 9 3 15 9 12 14 -4 5 -17 6 -31 3 -14 -4 -24 -2 -24 5 0 8 -1279 11
-4745 11 l-4745 0 0 -3465z m5005 -71 c5 2 9 9 8 15 -3 12 2 13 34 5 14 -4 20
-11 16 -22 -3 -13 -1 -13 11 2 15 18 17 18 29 4 6 -9 31 -19 55 -23 35 -6 42
-4 42 10 0 9 5 14 13 11 6 -2 30 -10 51 -17 22 -7 41 -21 44 -31 2 -10 10 -18
16 -18 20 0 39 -46 34 -84 -4 -36 -4 -36 33 -36 21 0 40 6 42 13 3 6 6 2 6 -9
1 -12 8 -25 17 -28 10 -4 14 -12 10 -22 -11 -28 3 -54 29 -54 12 0 25 -7 28
-14 3 -8 22 -18 41 -22 20 -3 36 -10 36 -15 0 -5 7 -9 16 -9 18 0 64 -44 64
-61 0 -5 16 -9 36 -9 19 0 44 -5 55 -10 24 -13 25 -46 2 -59 -10 -5 -14 -13
-10 -17 4 -4 13 -2 19 4 22 22 39 14 32 -14 -5 -21 -3 -25 12 -24 36 4 66 -11
58 -29 -11 -23 -5 -143 8 -158 16 -20 28 -15 28 12 0 14 5 25 11 25 6 0 9 -7
5 -15 -7 -20 32 -85 52 -85 15 -1 15 -2 0 -11 -10 -5 -18 -19 -18 -29 0 -22
22 -39 28 -22 6 18 82 15 82 -3 0 -11 -11 -15 -37 -15 l-38 -1 26 -22 c14 -12
34 -26 43 -32 15 -9 15 -13 -4 -50 -17 -34 -19 -67 -4 -84 2 -2 21 8 43 22 50
33 85 27 45 -8 -19 -16 -25 -29 -21 -44 3 -14 0 -21 -9 -21 -16 0 -17 -11 -8
-99 6 -50 10 -61 25 -61 14 0 19 -7 19 -25 0 -23 -4 -25 -45 -25 -49 0 -68
-19 -58 -60 6 -21 3 -22 -25 -18 -24 3 -32 1 -33 -11 -1 -20 -32 -74 -42 -72
-4 0 -14 1 -22 1 -8 0 -15 7 -15 15 0 8 6 15 14 15 22 0 30 19 16 35 -16 19
-30 19 -30 0 0 -20 -10 -19 -25 2 -15 21 -38 8 -30 -18 4 -13 2 -19 -8 -19 -9
0 -17 -5 -19 -11 -3 -8 -13 -9 -28 -4 -23 7 -23 8 -5 21 17 13 16 14 -13 14
-18 0 -32 5 -32 10 0 6 18 10 40 10 22 0 40 3 40 8 -1 10 -69 52 -86 52 -12 0
-12 -3 -2 -20 10 -16 10 -24 0 -41 -11 -17 -11 -23 0 -37 11 -14 10 -15 -5 -9
-10 4 -23 7 -28 7 -6 0 -8 4 -4 9 3 5 1 12 -3 15 -5 3 -7 17 -5 31 4 20 0 27
-21 35 -14 5 -26 14 -26 20 0 6 -22 7 -60 3 -62 -6 -73 0 -43 23 33 23 2 29
-40 7 -53 -28 -65 -29 -102 -14 -35 14 -88 25 -203 42 -74 10 -85 10 -101 -5
-10 -9 -36 -20 -57 -23 -22 -3 -51 -12 -66 -19 -15 -8 -45 -14 -66 -14 -23 0
-45 -6 -52 -15 -7 -8 -28 -17 -49 -21 -20 -4 -43 -12 -51 -19 -8 -6 -55 -34
-104 -61 -49 -27 -112 -62 -140 -77 -28 -16 -68 -42 -88 -58 -20 -16 -40 -29
-44 -29 -4 0 -28 -15 -54 -34 -55 -40 -72 -29 -42 25 13 25 14 33 4 36 -9 4
-10 8 -2 18 6 7 10 17 8 21 -1 5 3 25 10 45 7 20 12 41 11 45 -1 5 0 12 1 17
5 15 8 27 9 43 0 8 6 12 12 8 8 -4 9 3 5 23 -5 21 -2 34 9 43 8 7 15 23 15 37
0 13 4 22 8 19 4 -2 8 3 9 12 1 18 28 98 49 147 7 17 15 43 19 59 5 23 8 27
16 15 6 -9 9 1 9 34 0 38 3 47 18 48 9 0 12 3 6 5 -17 7 78 274 97 274 4 0 5
8 3 18 -3 9 6 37 19 62 13 25 30 66 37 93 8 26 18 47 22 47 4 0 8 9 8 19 0 11
6 26 13 33 6 7 20 38 31 68 10 30 22 57 25 60 7 5 51 96 51 105 0 21 43 95 57
99 12 4 19 17 20 38 3 41 22 61 29 30 11 -41 31 -20 25 27 -2 8 6 5 20 -8 13
-12 28 -20 34 -17z m165 12 c0 -2 -11 -6 -25 -8 -14 -3 -25 -1 -25 3 0 5 11 9
25 9 14 0 25 -2 25 -4z m1077 -938 c-2 -13 -4 -3 -4 22 0 25 2 35 4 23 2 -13
2 -33 0 -45z m-68 -231 c11 3 21 -2 24 -11 5 -12 0 -16 -23 -16 -29 0 -30 2
-28 43 1 35 2 37 5 11 3 -25 8 -31 22 -27z m-484 -296 c-3 -6 -11 -8 -17 -5
-6 4 -5 9 3 15 16 10 23 4 14 -10z m385 -42 c0 -16 -4 -28 -9 -25 -8 5 -3 56
5 56 2 0 4 -14 4 -31z m-162 -59 c-2 -26 -6 -30 -30 -30 -37 0 -37 25 0 44 15
8 28 15 30 16 1 0 1 -13 0 -30z m-1643 -130 c3 -5 1 -10 -4 -10 -6 0 -11 5
-11 10 0 6 2 10 4 10 3 0 8 -4 11 -10z m804 -270 c18 -5 39 -17 45 -26 7 -9
30 -17 54 -19 23 -2 54 -12 69 -22 16 -10 42 -25 58 -32 17 -7 41 -19 55 -25
14 -7 45 -19 70 -26 25 -7 52 -20 61 -27 8 -7 20 -13 26 -13 6 0 16 -7 23 -15
10 -12 106 -54 136 -59 20 -3 86 -57 159 -128 38 -37 72 -68 76 -68 4 0 21
-25 39 -56 23 -41 33 -73 37 -122 10 -129 9 -197 -4 -217 -7 -12 -10 -41 -8
-73 5 -60 -1 -63 -51 -26 l-34 27 -128 -13 c-70 -8 -140 -15 -157 -16 -16 -2
-52 -8 -80 -14 -27 -7 -72 -14 -100 -17 -27 -3 -57 -11 -65 -17 -8 -7 -36 -25
-62 -40 -27 -15 -48 -34 -48 -43 0 -13 -9 -15 -62 -9 -92 10 -145 24 -220 59
-65 29 -85 47 -53 47 8 0 15 9 15 19 0 34 -104 83 -230 107 -36 7 -85 17 -109
23 -97 25 -311 -7 -311 -47 0 -10 -19 -12 -77 -10 -63 2 -78 6 -76 18 1 8 11
58 23 110 11 52 27 127 36 167 19 87 106 262 172 345 50 64 127 137 160 154
20 10 39 22 40 27 2 4 11 7 20 7 10 0 37 10 62 21 44 20 115 33 275 48 122 12
128 12 164 1z m-618 -971 c102 -10 268 -47 308 -68 11 -6 31 -11 44 -11 32 0
137 -54 167 -85 20 -22 24 -36 24 -85 -1 -40 -7 -67 -21 -87 -11 -15 -25 -48
-32 -73 -24 -81 -48 -125 -98 -177 -37 -39 -61 -55 -102 -67 -118 -35 -380 -9
-512 50 -72 32 -121 86 -145 157 -28 83 -18 122 76 322 16 33 32 74 36 90 4
17 9 33 11 38 6 10 124 9 244 -4z m1387 -221 c29 -7 54 -17 55 -23 4 -19 -44
-16 -116 7 -75 24 -220 31 -317 16 l-45 -7 35 14 c43 18 305 13 388 -7z
m-1808 -42 c0 -67 28 -213 49 -254 37 -71 100 -113 226 -150 132 -39 316 -53
415 -31 25 5 62 12 83 16 32 5 48 17 96 74 32 38 70 92 86 121 16 29 41 69 57
89 15 20 28 44 28 53 0 21 30 34 60 26 34 -8 67 -71 97 -183 33 -128 104 -263
149 -288 47 -25 58 -102 21 -138 -23 -21 -26 -21 -81 -7 -51 14 -62 14 -104 0
-85 -29 -112 -51 -112 -92 l0 -27 124 2 c68 1 133 6 144 12 12 6 28 11 37 11
18 0 66 49 93 93 9 15 20 27 25 27 4 0 5 5 2 10 -3 6 1 13 9 16 9 3 13 10 10
15 -8 13 5 11 101 -11 118 -28 264 -27 348 1 34 11 68 26 75 31 9 8 11 7 6 -6
-3 -9 -10 -16 -15 -16 -14 0 -11 -38 4 -43 9 -3 9 -7 0 -18 -6 -8 -14 -35 -18
-61 -4 -27 -11 -48 -16 -48 -5 0 -7 -11 -3 -24 3 -13 1 -27 -5 -30 -7 -5 -11
2 -11 16 -1 17 -5 12 -15 -17 -9 -25 -11 -43 -4 -51 6 -7 4 -24 -6 -47 -8 -20
-15 -45 -15 -55 0 -22 -60 -170 -83 -206 -10 -14 -22 -26 -27 -26 -17 0 -11
50 9 78 24 34 34 69 23 76 -9 5 -42 -55 -42 -75 0 -6 -9 -23 -19 -38 -17 -23
-17 -29 -5 -46 21 -28 17 -53 -8 -57 -15 -2 -24 -11 -26 -27 -2 -13 -12 -26
-23 -28 -10 -3 -19 -14 -19 -23 0 -10 -9 -22 -20 -25 -11 -3 -20 -10 -20 -13
0 -4 -13 -22 -30 -40 -16 -18 -30 -39 -30 -47 0 -7 -7 -15 -15 -19 -8 -3 -15
-12 -15 -19 0 -8 -8 -25 -18 -38 -10 -13 -30 -44 -43 -69 -13 -25 -32 -51 -41
-58 -10 -7 -18 -17 -18 -22 0 -17 -53 -88 -74 -100 -13 -6 -30 -25 -40 -41 -9
-16 -21 -29 -26 -29 -5 0 -32 -21 -59 -47 -68 -65 -129 -106 -171 -116 -52
-13 -181 -17 -201 -7 -17 10 -51 15 -154 25 -77 8 -135 25 -159 47 -21 19 -29
22 -39 12 -8 -8 102 -104 119 -104 7 0 14 -3 16 -7 6 -14 86 -53 107 -53 12 0
21 -4 21 -10 0 -5 -11 -10 -24 -10 -19 0 -25 -7 -32 -37 -4 -21 -8 -43 -7 -50
1 -11 -5 -11 -42 3 -25 9 -32 11 -72 19 -22 5 -33 4 -33 -4 0 -6 -20 -12 -47
-12 -30 -1 -37 -4 -20 -6 29 -5 38 -23 11 -23 -22 0 -55 -40 -50 -59 24 -78
28 -112 16 -126 -7 -8 -10 -21 -6 -30 9 -24 -24 -33 -121 -30 -77 2 -100 7
-138 28 -34 19 -45 22 -45 11 0 -8 5 -14 10 -14 15 0 53 -41 45 -48 -3 -4 -9
-2 -13 4 -4 6 -24 19 -44 28 -41 20 -74 61 -57 71 5 4 16 1 24 -5 18 -15 20
-5 3 16 -37 44 -52 57 -56 46 -6 -19 -30 -14 -42 9 -14 26 -6 36 15 19 12 -10
15 -10 15 4 0 9 -4 16 -8 16 -4 0 -13 21 -20 48 -8 26 -18 55 -23 64 -5 10 -9
27 -9 37 0 11 -4 22 -9 25 -4 3 -11 26 -15 52 -3 26 -10 52 -15 58 -5 6 -14
34 -20 61 -6 28 -18 75 -27 105 -8 30 -19 75 -23 100 -5 25 -22 108 -39 185
-46 213 -46 195 -6 256 31 49 47 89 56 143 5 32 -43 41 -139 26 l-84 -13 -40
39 c-21 21 -58 64 -81 96 -47 64 -53 66 -136 42 -64 -18 -71 -22 -57 -32 6 -4
22 -25 37 -47 15 -22 52 -67 83 -100 41 -45 74 -96 125 -200 39 -78 70 -150
70 -160 0 -11 14 -87 32 -170 30 -143 31 -160 29 -360 0 -122 -6 -230 -13
-257 -14 -59 -11 -57 -328 -168 -245 -85 -355 -118 -365 -109 -3 3 -10 109
-15 235 -19 430 -72 683 -186 889 -65 118 -83 136 -138 142 -26 3 -46 11 -46
18 0 35 180 130 380 200 178 63 190 72 190 138 0 42 10 72 59 171 32 67 64
138 71 158 6 21 16 40 21 43 5 4 9 15 9 25 0 10 14 45 30 77 17 31 36 81 42
110 7 29 16 53 20 53 5 0 8 9 8 19 0 11 4 22 9 25 4 3 11 23 15 45 3 22 11 41
16 43 6 2 13 27 17 55 3 29 12 58 20 64 17 15 28 5 18 -18 -10 -25 -17 -301
-8 -316 4 -6 8 -31 10 -56 1 -24 9 -51 17 -60 9 -10 19 -33 23 -51 7 -39 63
-140 136 -250 53 -80 162 -198 173 -187 4 3 1 30 -5 59 -6 29 -16 91 -22 138
-19 158 -16 149 -60 166 -63 26 -75 65 -37 131 12 21 29 47 39 58 14 17 18 48
22 185 4 160 9 187 52 318 3 6 14 12 25 12 17 0 20 -6 20 -44z m1658 8 c83
-27 108 -46 50 -38 -18 3 -67 7 -108 10 -102 7 -111 11 -81 35 30 25 40 24
139 -7z m-240 -64 c72 -35 82 -55 22 -45 -26 4 -40 3 -40 -4 0 -6 -9 -11 -19
-11 -11 0 -21 -5 -23 -11 -2 -7 -12 -7 -31 0 -35 14 -35 31 1 31 15 0 37 3 49
6 l23 6 -24 19 c-13 10 -33 20 -45 22 -12 2 -27 9 -34 16 -20 20 13 34 38 15
11 -8 48 -28 83 -44z m37 -80 c3 -5 2 -10 -4 -10 -5 0 -13 5 -16 10 -3 6 -2
10 4 10 5 0 13 -4 16 -10z m-124 -30 c14 0 11 -26 -4 -39 -17 -13 -37 4 -37
32 0 13 5 17 16 13 9 -3 20 -6 25 -6z m514 -44 c16 -3 47 -1 69 4 29 6 43 6
48 -3 10 -16 10 -29 0 -23 -5 3 -7 -5 -6 -17 1 -12 3 -33 4 -47 1 -21 2 -22 9
-6 5 12 7 1 7 -30 1 -57 28 -118 50 -110 8 3 14 -1 14 -10 0 -8 5 -12 11 -8 6
3 4 -7 -5 -24 -20 -39 -58 -66 -125 -87 -95 -32 -324 -4 -454 53 -43 19 -127
97 -127 118 0 7 -6 23 -13 37 -8 14 -15 50 -16 80 -2 47 1 55 19 60 11 3 18 1
14 -4 -3 -5 10 -10 28 -11 44 -2 60 -4 78 -10 34 -12 133 -27 142 -22 5 3 6
15 2 26 -5 18 -3 20 24 16 20 -3 28 0 25 7 -3 8 11 11 45 9 27 -1 64 1 83 5
19 4 37 7 40 5 3 -2 18 -5 34 -8z m-205 -1718 c0 -29 1 -29 68 -32 11 -1 16 5
14 16 -1 9 3 20 9 24 8 5 9 3 4 -7 -5 -8 1 -5 13 5 21 18 23 18 42 1 11 -10
17 -22 14 -26 -3 -5 0 -9 5 -9 6 0 11 -5 11 -11 0 -5 -4 -7 -10 -4 -5 3 -10 1
-10 -4 0 -6 7 -11 15 -11 19 0 51 -74 68 -162 8 -40 26 -113 40 -162 15 -54
25 -116 25 -155 0 -36 8 -104 17 -151 15 -69 18 -132 17 -330 -1 -135 -6 -258
-10 -275 l-8 -30 -63 67 c-35 36 -114 113 -177 169 -63 57 -117 111 -120 121
-3 9 -1 43 5 75 30 173 43 371 37 563 -5 184 -16 257 -52 374 -6 18 -6 18 20
0 16 -12 25 -29 26 -46z m-843 -265 c-8 -9 -20 -12 -27 -8 -8 5 -6 11 7 20 23
17 39 7 20 -12z m-67 -63 c0 -5 -5 -10 -11 -10 -5 0 -7 5 -4 10 3 6 8 10 11
10 2 0 4 -4 4 -10z m-50 -16 c0 -17 -22 -14 -28 4 -2 7 3 12 12 12 9 0 16 -7
16 -16z m-1325 -983 c39 -17 178 -123 205 -156 28 -34 -2 -25 -46 14 -58 51
-145 109 -183 122 -24 9 -42 5 -113 -24 -46 -19 -104 -40 -128 -47 -51 -14
-70 -26 -70 -46 0 -8 27 -47 60 -88 33 -41 60 -77 60 -80 0 -12 90 -95 109
-101 11 -3 34 1 50 9 35 19 41 19 41 6 0 -33 -126 -130 -168 -130 -23 0 -52
44 -52 79 0 27 -3 32 -12 23 -7 -7 -11 -29 -11 -49 2 -67 67 -92 151 -58 l37
15 -30 -25 c-30 -25 -43 -28 -104 -26 -39 1 -56 13 -77 52 -19 37 -18 58 7
140 l21 68 -34 42 c-18 23 -49 59 -68 81 -32 38 -33 41 -20 65 12 20 37 33
110 58 52 18 115 42 140 53 55 26 74 27 125 3z m-2 -77 c38 -20 167 -122 167
-132 0 -9 -136 -100 -187 -126 -38 -19 -83 -21 -105 -3 -33 26 -149 178 -145
190 4 14 182 86 215 86 13 1 37 -6 55 -15z m156 -211 c-1 -17 -60 -54 -81 -51
-21 3 -19 6 17 31 39 26 66 35 64 20z m-16 -106 c-7 -11 -43 12 -43 29 0 13 4
12 24 -3 13 -10 22 -21 19 -26z m281 -584 c-9 -37 -11 -38 -29 -23 -27 22 -16
47 23 49 9 1 10 -7 6 -26z m106 -33 c13 -8 11 -14 -12 -37 -15 -15 -31 -24
-35 -20 -3 4 -1 13 5 19 7 7 12 20 12 30 0 20 8 22 30 8z"/>
<path d="M5373 9033 c9 -2 25 -2 35 0 9 3 1 5 -18 5 -19 0 -27 -2 -17 -5z"/>
<path d="M5775 8720 c-15 -6 -9 -9 25 -9 34 0 40 3 25 9 -11 5 -22 9 -25 9 -3
0 -14 -4 -25 -9z"/>
<path d="M5996 8068 c-8 -25 -13 -68 -8 -68 10 0 31 35 32 52 0 21 -19 34 -24
16z"/>
<path d="M6000 7936 c0 -9 5 -16 10 -16 6 0 10 4 10 9 0 6 -4 13 -10 16 -5 3
-10 -1 -10 -9z"/>
<path d="M4575 6219 c33 -5 71 -14 85 -20 l25 -12 -25 -8 c-14 -4 -50 -7 -80
-8 -96 -2 -266 -57 -258 -83 3 -7 19 -15 36 -19 18 -4 38 -11 45 -17 19 -16
153 -49 193 -47 20 0 34 -4 34 -11 0 -7 18 -11 48 -10 32 1 46 5 45 13 -2 7 0
12 5 11 4 -1 26 4 50 12 35 11 41 16 36 33 -4 11 -15 30 -26 41 -10 12 -14 22
-8 24 15 5 12 58 -3 71 -20 16 -151 41 -210 40 l-52 -1 60 -9z m-74 -119 c5 0
9 -5 9 -11 0 -15 -43 -7 -48 10 -3 10 0 12 12 8 10 -4 22 -7 27 -7z m286 -43
c4 -7 -6 -8 -32 -4 -43 7 -50 11 -41 26 7 11 62 -5 73 -22z"/>
<path d="M4856 5427 c-23 -17 -11 -23 57 -26 49 -2 61 11 28 29 -27 14 -64 13
-85 -3z"/>
<path d="M4814 5375 c15 -8 40 -14 55 -14 20 1 22 2 6 6 -11 3 -24 9 -29 14
-6 5 -21 9 -35 9 l-26 0 29 -15z"/>
<path d="M5700 5264 c0 -4 9 -23 19 -43 10 -20 25 -49 32 -66 9 -19 22 -31 37
-32 20 -3 22 0 16 25 -9 37 -23 61 -48 87 -21 21 -56 39 -56 29z"/>
<path d="M5080 5150 c0 -5 5 -10 11 -10 5 0 7 5 4 10 -3 6 -8 10 -11 10 -2 0
-4 -4 -4 -10z"/>
<path d="M4446 5105 c-15 -41 222 -225 290 -225 36 0 25 24 -14 30 -18 3 -40
17 -54 35 -12 17 -28 36 -35 43 -23 24 -14 41 27 53 30 9 50 9 78 1 54 -16
109 -24 177 -27 33 -1 74 -8 90 -15 17 -7 54 -12 83 -10 34 1 62 -4 76 -14 13
-8 33 -12 44 -9 12 3 35 0 52 -6 22 -7 38 -7 56 1 22 10 28 8 51 -15 l27 -26
-43 -41 c-32 -31 -47 -39 -65 -34 -13 3 -27 1 -30 -5 -4 -6 -22 -11 -40 -11
-17 0 -36 -4 -42 -9 -25 -26 -266 -2 -329 32 -31 17 -75 23 -75 9 0 -12 62
-36 102 -39 21 -1 55 -10 75 -19 26 -11 82 -17 178 -21 77 -2 157 -8 178 -13
22 -5 39 -4 43 2 3 5 11 4 20 -3 16 -13 18 -29 4 -29 -5 0 -10 7 -10 16 0 8
-5 12 -10 9 -6 -4 -7 -11 -4 -17 4 -6 0 -14 -7 -19 -10 -6 -3 -9 21 -9 64 0
78 9 104 66 31 68 85 139 128 167 31 21 65 88 53 106 -2 5 -89 7 -192 6 -103
-1 -212 1 -240 6 -32 5 -76 4 -110 -3 -32 -5 -78 -13 -103 -18 -25 -4 -53 -11
-62 -15 -11 -4 -18 -3 -18 4 0 6 -13 11 -30 11 -48 0 -275 39 -321 55 -55 20
-115 20 -123 0z"/>
<path d="M5825 4831 c-3 -5 -1 -12 5 -16 5 -3 10 1 10 9 0 18 -6 21 -15 7z"/>
<path d="M5845 4040 c-3 -5 -1 -10 4 -10 6 0 11 5 11 10 0 6 -2 10 -4 10 -3 0
-8 -4 -11 -10z"/>
<path d="M1540 5468 c1 -16 50 -77 50 -61 0 6 -6 18 -12 25 -7 7 -13 19 -13
27 0 8 -6 16 -12 19 -7 2 -13 -2 -13 -10z"/>
<path d="M2987 414 c-14 -15 -6 -25 54 -64 106 -68 259 -137 259 -115 0 2 -16
38 -35 79 -39 81 -36 79 -145 91 -30 3 -71 8 -90 11 -20 3 -39 2 -43 -2z"/>
<path d="M3414 309 c-16 -27 131 -229 167 -229 17 0 79 93 79 119 0 14 -9 21
-32 26 -18 4 -72 27 -120 50 -49 24 -90 39 -94 34z"/>
</g>
</svg>
